<svg width="436" height="725" viewBox="0 0 436 725" fill="none" xmlns="http://www.w3.org/2000/svg">
<path d="M140.195 649.695H376.177V692.18H140.195V649.695Z" fill="#455A64"/>
<path d="M-1.52588e-05 649.695H140.461V692.18H-1.52588e-05V649.695Z" fill="#37474F"/>
<path d="M145.414 654.101H376.177V687.774H145.414V654.101Z" fill="white"/>
<path d="M361.249 680.857C343.261 681.1 325.274 681.264 307.287 681.348L253.325 681.503L199.376 681.348C181.389 681.264 163.402 681.1 145.414 680.857C163.402 680.605 181.389 680.436 199.376 680.352L253.325 680.198L307.287 680.352C325.274 680.436 343.261 680.605 361.249 680.857Z" fill="#DBDBDB"/>
<path d="M361.249 674.249C343.261 674.483 325.274 674.646 307.287 674.74L253.325 674.894L199.376 674.74C181.389 674.656 163.402 674.492 145.414 674.249C163.402 674.015 181.389 673.847 199.376 673.744L253.325 673.603L307.287 673.744C325.274 673.847 343.261 674.015 361.249 674.249Z" fill="#DBDBDB"/>
<path d="M361.249 667.64C343.261 667.874 325.274 668.038 307.287 668.131L253.325 668.286L199.376 668.145C181.389 668.043 163.402 667.874 145.414 667.64C163.402 667.406 181.389 667.238 199.376 667.135L253.325 666.995L307.287 667.149C325.274 667.233 343.261 667.397 361.249 667.64Z" fill="#DBDBDB"/>
<path d="M361.249 661.032C343.261 661.275 325.274 661.443 307.287 661.537L253.325 661.677L199.376 661.537C181.389 661.443 163.402 661.275 145.414 661.032C163.402 660.789 181.389 660.625 199.376 660.541L253.325 660.386L307.287 660.541C325.274 660.625 343.261 660.789 361.249 661.032Z" fill="#DBDBDB"/>
<path d="M164.047 724.984L180.126 708.007L196.206 724.984V680.998L192.768 674.249H160.61L164.047 680.998V724.984Z" fill="#FF6434"/>
<path d="M435.064 649.863H27.7241L27.7241 610.072H435.064V649.863Z" fill="#C7C7C7"/>
<path d="M222.682 642.09H66.0146V618.21H222.682V642.09Z" fill="white"/>
<path d="M407.564 621.9H260.494V618.21H407.564V621.9Z" fill="white"/>
<path d="M407.564 631.806H260.494V628.116H407.564V631.806Z" fill="white"/>
<path d="M407.564 641.74H260.494V638.049H407.564V641.74Z" fill="white"/>
<path d="M30.8398 555.212H367.408V609.89H30.8398V555.212Z" fill="#FF6434"/>
<path d="M66.5058 555.212H97.8784V609.89H66.5058V555.212Z" fill="#263238"/>
<path d="M118.475 555.212H130.64V609.89H118.475V555.212Z" fill="#263238"/>
<path d="M244.247 597.837C201.775 597.837 167.344 590.997 167.344 582.558C167.344 574.119 201.775 567.279 244.247 567.279C286.719 567.279 321.149 574.119 321.149 582.558C321.149 590.997 286.719 597.837 244.247 597.837Z" fill="white"/>
<path d="M240.837 555.226H25.6338L25.6338 524.724H240.837V555.226Z" fill="#A6A6A6"/>
<path d="M363.536 555.226H240.837V524.724H363.536V555.226Z" fill="#A6A6A6"/>
<path d="M240.837 552.055H25.6338L25.6338 527.88H240.837V552.055Z" fill="white"/>
<path d="M39.4823 532.847C56.263 532.679 73.0391 532.562 89.8105 532.497L140.125 532.384L190.453 532.497C207.224 532.553 223.995 532.67 240.767 532.847C224.005 533.034 207.233 533.156 190.453 533.212L140.125 533.31L89.8105 533.212C73.0952 533.147 56.3192 533.025 39.4823 532.847Z" fill="#DBDBDB"/>
<path d="M39.4823 537.59C56.263 537.421 73.0391 537.304 89.8105 537.239L140.125 537.127L190.453 537.239C207.224 537.295 223.995 537.412 240.767 537.59C224.005 537.767 207.233 537.889 190.453 537.954L140.125 538.053L89.8105 537.954C73.0952 537.889 56.3192 537.767 39.4823 537.59Z" fill="#DBDBDB"/>
<path d="M39.4823 542.332C56.263 542.164 73.0391 542.047 89.8105 541.981L140.125 541.869L190.453 541.981C207.224 542.037 223.995 542.154 240.767 542.332C224.005 542.51 207.233 542.631 190.453 542.697L140.125 542.795L89.8105 542.697C73.0952 542.631 56.3192 542.51 39.4823 542.332Z" fill="#DBDBDB"/>
<path d="M39.4823 547.074C56.263 546.906 73.0391 546.789 89.8105 546.724L140.125 546.611L190.453 546.724C207.224 546.78 223.995 546.897 240.767 547.074C224.005 547.252 207.233 547.374 190.453 547.439L140.125 547.537L89.8105 547.439C73.0952 547.346 56.3192 547.224 39.4823 547.074Z" fill="#DBDBDB"/>
<path d="M202.73 569.86L192.502 559.071L182.273 569.86V541.883L184.462 537.59H204.919L202.73 541.883V569.86Z" fill="#455A64"/>
<path d="M230.634 481.904C237.616 486.825 244.869 491.67 253.1 493.943C261.332 496.215 270.842 495.448 277.463 490.09C285.95 483.168 287.485 470.784 286.492 459.859C284.581 437.618 275.176 415.572 279.465 393.647C281.083 385.732 284.424 378.27 289.251 371.792C294.078 365.314 300.272 359.978 307.394 356.163C314.563 352.462 322.459 350.385 330.521 350.078C338.582 349.771 346.613 351.242 354.043 354.387C363.267 358.375 371.905 366.019 373.003 375.996C369.994 385.266 356.195 392.925 347.03 396.175C337.866 399.426 327.679 402.977 323.104 411.555C319.131 419.003 320.636 428.017 321.599 436.414C323.129 450.663 322.582 465.059 319.974 479.15C318.018 489.684 314.737 500.383 307.65 508.449C296.574 521.059 278.17 524.836 261.482 523.046C244.794 521.255 229.039 514.799 212.967 509.999L230.634 481.904Z" fill="#FF6434"/>
<g opacity="0.5">
<path d="M280.804 401.668C280.115 399.832 279.552 397.952 279.119 396.04C279.239 395.247 279.374 394.45 279.525 393.647C281.143 385.732 284.485 378.27 289.312 371.792C294.139 365.314 300.333 359.978 307.454 356.163C314.623 352.462 322.519 350.385 330.581 350.078C338.643 349.771 346.673 351.242 354.103 354.387C363.328 358.375 371.965 366.019 373.064 375.996C370.054 385.266 356.255 392.925 347.091 396.175C337.926 399.426 327.739 402.977 323.164 411.555C320.486 416.581 320.305 422.314 320.742 428.107C319.071 428.332 317.383 428.393 315.7 428.288C300.321 427.34 286.282 416.144 280.804 401.668Z" fill="white"/>
</g>
<path d="M116.224 503.905C111.709 501.03 101.506 500.278 96.2096 499.676C90.9126 499.074 85.1492 500.579 81.628 504.582C78.1067 508.585 77.5048 515.251 81.1013 519.178C85.2094 523.693 94.5242 523.603 100.664 523.603C117.217 523.603 126.893 523.286 142.061 523.603" fill="#FF6434"/>
<path d="M142.016 523.603C141.633 523.533 141.246 523.498 140.857 523.497L137.516 523.362C134.627 523.287 130.444 523.196 125.267 523.181H107.074C103.658 523.181 100.062 523.181 96.3598 523.181C92.5551 523.216 88.7713 522.616 85.164 521.406C83.4021 520.735 81.8639 519.582 80.7248 518.08C79.6995 516.56 79.1256 514.781 79.0695 512.949C79.0027 511.209 79.3231 509.477 80.0075 507.876C80.6919 506.276 81.7233 504.847 83.0272 503.694C85.4637 501.635 88.4625 500.356 91.6347 500.022C94.4271 499.816 97.234 499.927 100.001 500.353C104.06 500.68 108.086 501.334 112.04 502.31C113.104 502.598 114.145 502.966 115.155 503.408C115.493 503.6 115.845 503.766 116.208 503.905C116.208 503.905 116.133 503.829 115.967 503.724C115.802 503.619 115.561 503.453 115.23 503.273C114.237 502.759 113.199 502.336 112.13 502.009C108.191 500.92 104.162 500.185 100.092 499.812C97.2842 499.337 94.4309 499.19 91.5895 499.375C88.268 499.695 85.1208 501.012 82.5607 503.152C81.1677 504.372 80.064 505.887 79.33 507.587C78.5959 509.286 78.2499 511.128 78.3171 512.979C78.3711 514.963 78.9925 516.89 80.1079 518.531C81.33 520.159 82.9895 521.407 84.8931 522.128C88.5799 523.378 92.452 523.994 96.3447 523.949C100.092 523.949 103.673 523.949 107.104 523.949L125.282 523.738H137.531H140.872C141.256 523.721 141.638 523.676 142.016 523.603Z" fill="#263238"/>
<path d="M179.335 284.007C179.335 286.023 191.373 315.277 221.199 338.978C251.024 362.678 275.688 390.427 275.176 427.25C274.664 464.072 251.972 504.431 251.972 504.431L228.512 522.895L142.016 523.602C142.016 523.602 102.168 514.017 97.1272 481.227C92.0861 448.437 102.168 432.802 102.168 432.802L100.664 400.013C100.664 400.013 76.9628 356.132 75.443 342.017C73.9231 327.902 87.045 276.438 87.045 276.438L179.335 284.007Z" fill="#FF6434"/>
<path d="M130.91 379.201C131.63 382.4 131.798 385.697 131.407 388.952C130.896 392.47 129.84 395.887 128.277 399.08C126.373 403 124.014 406.682 121.249 410.05C118.315 413.661 115.23 416.912 112.597 419.921C109.963 422.931 107.525 425.73 105.72 428.213C104.263 430.151 102.95 432.193 101.792 434.322C101.371 435.075 101.115 435.692 100.919 436.098C100.724 436.504 100.648 436.73 100.678 436.745C101.189 436.019 101.651 435.259 102.063 434.473C103.309 432.417 104.676 430.438 106.156 428.544C108.007 426.121 110.399 423.397 113.123 420.418C115.847 417.438 118.902 414.188 121.866 410.546C124.661 407.12 127.035 403.371 128.939 399.381C130.491 396.113 131.507 392.618 131.948 389.028C132.239 386.604 132.137 384.15 131.647 381.759C131.526 381.11 131.355 380.471 131.136 379.848C131.089 379.624 131.013 379.406 130.91 379.201Z" fill="#263238"/>
<path d="M98.5118 446.09C98.3561 446.377 98.23 446.68 98.1356 446.993C97.9249 447.595 97.5638 448.498 97.2327 449.656C96.2455 452.95 95.5457 456.324 95.141 459.738C94.5281 464.816 94.5281 469.949 95.141 475.027C95.4878 478.034 96.0766 481.008 96.9017 483.921C97.754 487.035 98.9082 490.059 100.348 492.95C101.796 495.861 103.519 498.627 105.494 501.211C107.357 503.596 109.41 505.825 111.634 507.877C115.418 511.328 119.631 514.276 124.169 516.65C127.209 518.26 130.381 519.609 133.649 520.683C134.793 521.089 135.711 521.315 136.328 521.496C136.634 521.603 136.952 521.673 137.276 521.706C136.987 521.557 136.685 521.436 136.373 521.345C135.771 521.104 134.868 520.849 133.739 520.397C130.536 519.21 127.423 517.792 124.425 516.154C119.971 513.743 115.836 510.786 112.115 507.351C109.943 505.306 107.931 503.097 106.096 500.744C104.165 498.194 102.477 495.469 101.055 492.603C99.629 489.737 98.485 486.738 97.639 483.65C96.8142 480.797 96.2154 477.884 95.8483 474.937C95.2004 469.91 95.15 464.823 95.6978 459.784C96.0363 456.384 96.6502 453.017 97.5337 449.716C97.8046 448.543 98.1206 447.655 98.2861 447.038C98.3847 446.728 98.4601 446.411 98.5118 446.09Z" fill="#263238"/>
<path d="M227.007 522.835C227.759 522.583 228.488 522.271 229.189 521.902C230.039 521.52 230.867 521.093 231.672 520.623C232.62 520.081 233.734 519.509 234.862 518.727C235.991 517.944 237.285 517.222 238.564 516.184C239.843 515.146 241.182 514.107 242.582 512.948C248.515 507.729 253.455 501.478 257.164 494.5C257.976 492.874 258.774 491.339 259.376 489.835C259.978 488.33 260.549 486.945 261.001 485.651C261.452 484.357 261.783 483.153 262.099 482.115C262.366 481.219 262.587 480.31 262.761 479.391C262.961 478.626 263.097 477.846 263.168 477.059C262.863 477.793 262.626 478.554 262.46 479.331C262.28 480.068 262.024 480.971 261.678 481.995C261.332 483.018 261.001 484.207 260.474 485.471C259.947 486.735 259.466 488.134 258.774 489.579C258.081 491.023 257.269 492.588 256.532 494.093C254.64 497.51 252.487 500.775 250.091 503.859C247.654 506.903 244.983 509.751 242.1 512.377C240.731 513.55 239.467 514.694 238.173 515.627C236.879 516.56 235.69 517.478 234.561 518.245C233.433 519.013 232.379 519.63 231.461 520.217C230.544 520.804 229.731 521.24 229.054 521.601C228.335 521.949 227.65 522.362 227.007 522.835Z" fill="#263238"/>
<path d="M186.799 418.943C187.331 418.656 187.835 418.319 188.303 417.935C189.221 417.243 190.531 416.174 192.111 414.76C196.353 410.917 200.117 406.577 203.321 401.834L202.644 401.517L199.755 410.802L197.573 417.754L197.227 418.898L198.175 418.176C203.201 414.295 207.107 409.149 209.491 403.263C210.179 401.551 210.723 399.784 211.116 397.981C211.252 397.349 211.312 396.853 211.372 396.476C211.432 396.1 211.372 395.965 211.372 395.95C211.154 396.575 210.973 397.213 210.83 397.861C210.342 399.623 209.729 401.348 208.995 403.022C206.525 408.741 202.628 413.731 197.678 417.514L198.28 417.935C198.973 415.708 199.69 413.395 200.432 410.998C201.44 407.747 202.404 404.602 203.306 401.713L204.059 399.23L202.629 401.382C199.486 406.103 195.833 410.463 191.734 414.384C190.23 415.888 188.951 416.957 188.078 417.709C187.616 418.082 187.188 418.495 186.799 418.943Z" fill="#263238"/>
<g opacity="0.3">
<path d="M131.648 381.052C131.437 379.547 129.029 379.547 128.202 380.856C127.581 382.212 127.407 383.73 127.705 385.19C128.217 393.858 122.814 401.743 117.171 408.319C111.528 414.895 105.283 421.652 103.478 430.139C107.992 424.947 113.289 420.568 118.24 415.828C123.191 411.088 127.856 405.836 130.549 399.531C133.243 393.226 133.754 385.687 130.549 379.653" fill="black"/>
</g>
<g opacity="0.3">
<path d="M132.415 520.156C125.493 520.412 118.345 519.72 112.19 516.53C106.036 513.34 101.055 507.305 100.603 500.398L105.795 500.624C112.448 509.308 121.467 515.887 131.768 519.57" fill="black"/>
</g>
<path d="M121.144 166.241C121.144 166.241 158.764 172.079 166.8 175.27C174.835 178.46 207.761 195.494 212.937 211.716C212.937 211.716 215.51 230 207.43 252.496C204.495 260.698 180.614 288.446 174.941 291.621C169.268 294.797 86.1571 280.034 86.1571 280.034C81.1612 273.263 66.7903 249.728 66.9106 232.091C67.0611 209.955 74.9915 185.066 74.9915 185.066L121.144 166.241Z" fill="#FF6434"/>
<path d="M92.1763 128.019C92.9888 127.883 102.981 128.019 110.58 145.219C115.24 155.713 120.626 165.87 126.697 175.616L74.7807 187.654C74.7807 187.654 77.685 159.605 80.5591 149.808C83.4333 140.012 86.3677 128.967 92.1763 128.019Z" fill="#FF6434"/>
<g opacity="0.6">
<path d="M108.218 234.77C124.996 228.194 144.333 231.113 160.69 238.547C169.824 242.685 178.748 248.674 182.871 257.839C189.537 272.887 180.478 290.689 167.823 301.102C155.168 311.515 139.232 317.158 125.508 326.217C111.784 335.276 99.6401 350.008 101.431 366.335L100.618 399.892C99.2639 397.379 76.9326 355.711 75.4579 342.017C74.1788 329.979 83.5237 290.779 86.2925 279.508C85.0886 278.003 83.1926 274.858 80.9354 271.878C80.6795 255.611 92.8384 240.819 108.218 234.77Z" fill="white"/>
</g>
<path d="M125.583 228.329C125.478 227.953 125.457 227.558 125.52 227.173C125.582 226.787 125.728 226.42 125.948 226.096C126.167 225.773 126.453 225.5 126.788 225.299C127.123 225.097 127.497 224.971 127.886 224.928C132.148 224.396 136.476 224.992 140.436 226.659C140.882 226.786 141.296 227.008 141.649 227.309C142.002 227.61 142.286 227.984 142.482 228.405C142.568 228.877 142.536 229.362 142.389 229.819C142.242 230.276 141.984 230.689 141.64 231.023C140.626 232.242 139.321 233.187 137.845 233.768C136.37 234.35 134.771 234.55 133.198 234.351C131.625 234.151 130.127 233.558 128.843 232.627C127.56 231.695 126.532 230.455 125.854 229.021C125.748 228.797 125.658 228.566 125.583 228.329Z" fill="#263238"/>
<path d="M124.259 247.049C124.791 247.789 125.463 248.417 126.238 248.898C127.012 249.378 127.874 249.701 128.773 249.848C129.643 250.128 130.559 250.231 131.469 250.151C132.379 250.071 133.263 249.809 134.07 249.382C132.36 249.464 130.645 249.369 128.954 249.096C127.323 248.576 125.75 247.89 124.259 247.049Z" fill="#263238"/>
<path d="M211.989 215.147C211.989 215.147 229.701 153.766 222.147 148.589C214.593 143.413 207.64 149.537 207.64 149.537L168.53 179.212L211.989 215.147Z" fill="#FF6434"/>
<g opacity="0.6">
<path d="M207.098 202.747C200.412 193.486 191.549 186.013 181.291 180.988L208.152 159.921C208.691 159.358 209.345 158.919 210.07 158.634C210.795 158.348 211.572 158.222 212.35 158.265C213.052 158.511 213.675 158.938 214.156 159.504C214.638 160.07 214.96 160.754 215.089 161.486C216.082 165.203 215.089 171.237 214.306 175.029C212.14 184.946 209.792 194.456 207.098 202.808" fill="white"/>
</g>
<g opacity="0.6">
<path d="M83.6741 179.634C93.2211 174.166 103.963 171.123 114.959 170.77C109.883 161.049 104.817 151.328 99.7604 141.607C99.0682 140.268 98.1804 138.793 96.7508 138.492C96.0403 138.429 95.3257 138.556 94.6804 138.86C94.0351 139.164 93.4824 139.634 93.0791 140.223C90.7166 143.097 89.1816 148.77 88.3991 152.412C86.3677 161.967 84.6221 171.222 83.7042 179.634" fill="white"/>
</g>
<path d="M78.5881 267.168C78.6824 267.484 78.8032 267.791 78.9492 268.086C79.2502 268.748 79.6414 269.591 80.138 270.659C81.6806 273.783 83.5576 276.729 85.7359 279.448C89.0543 283.442 93.1045 286.767 97.669 289.244C98.9632 289.906 100.333 290.538 101.747 291.11C103.221 291.699 104.729 292.201 106.261 292.615C107.824 293.022 109.406 293.348 111.002 293.593C112.659 293.813 114.326 293.948 115.998 293.999C118.963 294.088 121.929 293.861 124.846 293.322L124.62 292.585C120.489 294.353 116.758 296.938 113.65 300.184L113.093 300.771H113.906C120.313 300.804 126.682 299.787 132.761 297.761C134.469 297.197 136.147 296.544 137.787 295.805C138.359 295.549 138.795 295.323 139.081 295.188C139.232 295.121 139.374 295.035 139.503 294.932C138.892 295.121 138.294 295.347 137.712 295.609C136.553 296.061 134.838 296.693 132.641 297.37C126.573 299.23 120.252 300.128 113.906 300.033L114.162 300.62C117.216 297.468 120.876 294.965 124.921 293.262L128.277 291.847L124.695 292.524C121.832 293.047 118.922 293.263 116.013 293.171C114.357 293.171 112.717 292.946 111.122 292.78C109.55 292.549 107.992 292.228 106.457 291.817C104.967 291.44 103.5 290.977 102.063 290.433C100.679 289.876 99.3243 289.259 98.0452 288.612C93.5426 286.203 89.5268 282.978 86.2024 279.101C84.0126 276.441 82.0873 273.573 80.454 270.539C79.9123 269.516 79.4759 268.688 79.1449 268.041C78.9876 267.733 78.8011 267.441 78.5881 267.168Z" fill="#263238"/>
<path d="M101.251 361.776C101.112 362.348 101.031 362.933 101.01 363.521C100.905 364.65 100.799 366.29 100.679 368.306C100.453 372.354 100.257 377.937 100.167 384.107C100.077 390.277 100.167 395.859 100.167 399.907C100.167 401.924 100.288 403.564 100.363 404.693C100.357 405.285 100.423 405.876 100.558 406.453C100.666 405.873 100.707 405.282 100.679 404.693C100.679 403.399 100.679 401.788 100.679 399.907C100.679 395.679 100.784 390.186 100.844 384.107C100.905 378.027 101.055 372.55 101.13 368.336C101.13 366.44 101.13 364.845 101.221 363.536C101.299 362.952 101.31 362.362 101.251 361.776Z" fill="#263238"/>
<path d="M158.568 224.793C158.568 226.139 158.968 227.454 159.716 228.573C160.464 229.692 161.527 230.564 162.771 231.078C164.014 231.593 165.383 231.727 166.703 231.463C168.022 231.199 169.234 230.55 170.185 229.597C171.136 228.644 171.782 227.431 172.043 226.111C172.304 224.79 172.167 223.422 171.65 222.18C171.133 220.937 170.259 219.876 169.138 219.13C168.018 218.385 166.701 217.988 165.355 217.991C163.554 217.995 161.828 218.714 160.555 219.989C159.283 221.264 158.568 222.992 158.568 224.793Z" fill="#263238"/>
<path d="M101.07 214.395C101.067 215.741 101.464 217.057 102.209 218.178C102.955 219.298 104.016 220.172 105.259 220.689C106.501 221.207 107.869 221.343 109.19 221.083C110.51 220.822 111.723 220.175 112.676 219.225C113.629 218.274 114.278 217.062 114.542 215.742C114.805 214.422 114.672 213.054 114.157 211.81C113.643 210.567 112.771 209.503 111.652 208.755C110.533 208.007 109.218 207.608 107.872 207.608C106.071 207.608 104.343 208.323 103.068 209.595C101.792 210.867 101.074 212.593 101.07 214.395Z" fill="#263238"/>
<path d="M112.326 230.06C112.253 230.84 112.304 231.628 112.476 232.392C112.798 234.515 113.518 236.557 114.598 238.411C114.957 239.046 115.409 239.625 115.937 240.127C116.532 240.642 117.196 241.072 117.909 241.406C119.518 242.157 121.354 242.264 123.04 241.707C123.942 241.445 124.796 241.039 125.568 240.503C126.381 239.992 127.16 239.429 127.901 238.818C129.463 237.535 130.872 236.076 132.099 234.469L131.407 234.333L131.527 234.74C132.013 236.681 132.893 238.502 134.112 240.089C135.332 241.675 136.864 242.995 138.615 243.964C140.195 244.778 141.98 245.108 143.746 244.912C145.255 244.732 146.705 244.218 147.99 243.407C149.81 242.193 151.303 240.55 152.339 238.622C152.611 238.105 152.852 237.573 153.061 237.027C153.196 236.651 153.257 236.44 153.227 236.44C153.196 236.44 152.85 237.193 152.068 238.472C150.988 240.303 149.487 241.851 147.689 242.986C146.473 243.751 145.099 244.23 143.671 244.386C142.039 244.537 140.398 244.213 138.946 243.453C137.299 242.51 135.86 241.244 134.714 239.732C133.569 238.219 132.741 236.49 132.28 234.649L132.174 234.258L131.949 233.506L131.482 234.123C130.284 235.67 128.922 237.083 127.419 238.336C126.707 238.934 125.958 239.486 125.177 239.992C124.469 240.5 123.68 240.887 122.844 241.135C121.412 241.607 119.862 241.578 118.449 241.053C117.035 240.528 115.842 239.538 115.065 238.246C113.983 236.467 113.21 234.519 112.777 232.483C112.446 230.887 112.386 230.06 112.326 230.06Z" fill="#263238"/>
<g opacity="0.6">
<path d="M142.196 169.792L151.737 171.598C151.066 175.574 149.663 179.391 147.598 182.854C146.876 184.073 145.778 185.397 144.363 185.292C143.948 185.24 143.551 185.092 143.203 184.86C142.856 184.627 142.568 184.316 142.362 183.952C141.945 183.224 141.674 182.422 141.564 181.59C140.877 177.66 141.094 173.626 142.196 169.792Z" fill="white"/>
</g>
<path d="M54.2702 240.187C54.9198 240.129 55.5609 239.997 56.1813 239.796L61.3126 238.517C65.6465 237.448 71.6657 236.139 78.3922 235.056C85.1187 233.972 91.2433 233.385 95.6975 233.054L100.964 232.678C101.616 232.666 102.266 232.595 102.906 232.467C102.264 232.359 101.613 232.324 100.964 232.362C99.7153 232.362 97.9547 232.362 95.6674 232.498C84.0047 233.054 72.4385 234.891 61.1772 237.975C59.0103 238.577 57.2798 239.089 56.091 239.48C55.461 239.651 54.8508 239.888 54.2702 240.187Z" fill="#263238"/>
<path d="M49.064 227.878C49.7367 227.973 50.4176 227.999 51.0955 227.953H56.6031C61.268 227.953 67.6935 227.953 74.7962 228.088C81.8989 228.224 88.3394 228.645 92.9743 228.931L98.4668 229.277C99.1427 229.337 99.8224 229.337 100.498 229.277C99.8466 229.086 99.1751 228.97 98.4969 228.931C97.2028 228.766 95.3368 228.555 93.0044 228.329C88.3696 227.893 81.929 227.456 74.8112 227.261C67.6935 227.065 61.268 227.171 56.588 227.366C54.2706 227.456 52.3746 227.562 51.0804 227.667C50.4031 227.672 49.7278 227.743 49.064 227.878Z" fill="#263238"/>
<path d="M49.6506 257.748C50.326 257.464 50.9755 257.122 51.5918 256.725C52.8107 256.003 54.6014 254.995 56.7984 253.715C62.5492 250.54 68.4666 247.677 74.5251 245.138C80.603 242.663 86.8063 240.509 93.1094 238.682C95.5171 237.975 97.4884 237.433 98.8578 237.057C99.5732 236.906 100.273 236.689 100.949 236.41C100.217 236.457 99.4907 236.578 98.7825 236.771C97.3981 237.042 95.3967 237.509 92.9589 238.156C80.1934 241.559 67.9445 246.666 56.5426 253.339C54.3606 254.618 52.6151 255.717 51.4564 256.499C50.8176 256.86 50.2132 257.278 49.6506 257.748Z" fill="#263238"/>
<path d="M168.335 249.035C168.845 249.46 169.4 249.829 169.99 250.134L174.55 252.948C178.462 255.31 183.819 258.651 189.598 262.564C195.376 266.476 200.463 270.223 204.104 272.977L208.498 276.302C209.004 276.735 209.554 277.113 210.138 277.431C209.686 276.924 209.181 276.465 208.634 276.062C207.671 275.219 206.241 274.03 204.465 272.586C200.899 269.711 195.843 265.889 190.049 261.962C184.256 258.034 178.838 254.754 174.851 252.512C172.849 251.383 171.224 250.495 170.08 249.923C169.527 249.574 168.943 249.277 168.335 249.035Z" fill="#263238"/>
<path d="M169.403 243.723C169.596 243.872 169.809 243.994 170.035 244.085L171.916 244.972L178.853 248.117C184.707 250.781 192.788 254.513 201.606 258.802C210.424 263.09 218.354 267.138 224.073 270.088L230.844 273.594L232.695 274.527C232.907 274.649 233.135 274.74 233.372 274.798C233.19 274.636 232.988 274.5 232.77 274.391L230.995 273.323C229.49 272.42 227.157 271.141 224.328 269.606C218.685 266.521 210.785 262.398 201.952 258.094C193.119 253.791 184.993 250.149 179.079 247.561C176.069 246.282 173.707 245.288 172.036 244.626L170.11 243.874C169.884 243.786 169.645 243.735 169.403 243.723Z" fill="#263238"/>
<path d="M177.755 241.481C178.535 241.787 179.341 242.024 180.163 242.188C181.667 242.58 183.97 243.167 186.739 243.919C192.276 245.424 199.891 247.726 208.092 250.781C216.293 253.836 223.561 257.101 228.738 259.584C231.326 260.833 233.418 261.871 234.847 262.594C235.576 263 236.336 263.347 237.12 263.632C236.444 263.138 235.73 262.7 234.983 262.323C233.598 261.51 231.552 260.412 228.964 259.087C215.55 252.297 201.416 247.032 186.829 243.392C184.03 242.7 181.758 242.188 180.178 241.888C179.38 241.698 178.571 241.563 177.755 241.481Z" fill="#263238"/>
<path d="M97.0217 151.253C96.856 151.74 96.7499 152.245 96.7057 152.758C96.5703 153.796 96.4198 155.286 96.3295 157.152C96.1013 162.077 96.4549 167.012 97.3829 171.854L97.5785 172.892L98.1052 171.959C98.4363 171.387 98.7824 170.755 99.1435 170.138L104.516 160.583L103.884 160.493C104.551 163.256 104.94 166.079 105.042 168.919C105.118 170.981 105.042 172.17 105.148 172.185C105.239 171.908 105.29 171.619 105.298 171.327C105.394 170.528 105.445 169.724 105.449 168.919C105.491 166.035 105.188 163.155 104.546 160.342L104.35 159.484L103.914 160.252L98.4664 169.747L97.4281 171.583L98.1504 171.703C97.2343 166.913 96.8007 162.044 96.8562 157.167C96.9014 153.525 97.1421 151.268 97.0217 151.253Z" fill="#263238"/>
<path d="M195.617 184.825C197.513 181.975 199.69 179.324 202.117 176.91L201.531 176.699C201.801 179.257 202.117 182.117 202.448 185.171C202.448 185.578 202.539 185.984 202.584 186.36L202.734 187.775L203.321 186.48C205.353 181.966 207.143 177.963 208.392 175.044C209.132 173.501 209.761 171.906 210.273 170.274C209.363 171.714 208.568 173.223 207.896 174.788C206.526 177.647 204.661 181.65 202.614 186.134L203.351 186.255L203.216 185.051C202.87 182.041 202.524 179.137 202.223 176.594V175.887L201.711 176.383C199.91 178.137 198.329 180.102 197.001 182.237C196.413 183.025 195.946 183.898 195.617 184.825Z" fill="#263238"/>
<path d="M113.315 59.4002C116.191 84.0551 132.033 88.5885 134.68 95.1688C136.101 98.7212 137.979 107.771 137.979 107.771H163.733C163.733 107.771 165.594 98.7212 167.032 95.1604C169.671 88.5886 185.521 84.0551 188.397 59.4002C190.291 43.2032 178.12 17.6264 150.86 17.6179C123.6 17.6095 111.438 43.2032 113.315 59.4002Z" fill="#FFEB34"/>
<path d="M164.412 68.447L165.244 68.6022L157.598 109.576L156.767 109.421L164.412 68.447Z" fill="white"/>
<path d="M137.24 68.4191L144.9 109.39L144.069 109.545L136.409 68.5745L137.24 68.4191Z" fill="white"/>
<path d="M150.852 81.9913C152.831 81.9913 154.827 80.4097 156.493 77.534C156.595 77.3564 156.696 77.1703 156.789 76.9842C157.047 77.35 157.381 77.6558 157.768 77.8806C158.154 78.1055 158.585 78.244 159.031 78.2867C162.794 78.2867 164.317 70.4208 164.385 70.091L163.97 70.0064C163.97 70.091 162.448 77.8638 159.031 77.8638C158.619 77.8108 158.224 77.6682 157.873 77.4461C157.522 77.224 157.225 76.9278 157.001 76.5782C158.819 72.9582 159.487 68.6954 158.439 66.8854C158.275 66.581 158.031 66.328 157.732 66.1547C157.433 65.9814 157.092 65.8947 156.747 65.9043C155.123 65.9043 154.21 67.2153 154.21 69.5074C154.289 72.0494 155.09 74.5165 156.519 76.6205C156.392 76.8573 156.265 77.0942 156.13 77.3225C155.216 78.9042 153.313 81.5515 150.86 81.5515C149.219 81.5515 147.579 80.2743 146.234 77.9484C146.104 77.7285 145.986 77.5086 145.879 77.2887C146.24 76.8898 146.558 76.4531 146.826 75.9862C148.408 73.2458 148.737 69.2198 147.545 67.1307C147.361 66.7611 147.079 66.4489 146.73 66.2282C146.381 66.0075 145.978 65.8867 145.566 65.8789C145.249 65.8783 144.938 65.9668 144.669 66.1343C144.399 66.3017 144.183 66.5415 144.043 66.8262C142.91 68.7885 143.553 73.508 145.363 77.2041C145.008 77.5682 144.585 77.8587 144.117 78.059C143.65 78.2593 143.148 78.3654 142.639 78.3713C139.713 78.3713 137.505 70.5562 137.488 70.48L137.082 70.59C137.175 70.9283 139.391 78.7942 142.639 78.7942C143.732 78.7898 144.781 78.3624 145.566 77.6016C145.661 77.7877 145.763 77.9738 145.87 78.1599C146.877 79.8514 148.551 81.9744 150.86 81.9744L150.852 81.9913ZM145.557 66.3187C145.897 66.325 146.227 66.4256 146.513 66.6094C146.798 66.7931 147.027 67.0527 147.173 67.3591C148.272 69.279 147.942 73.2119 146.454 75.817C146.226 76.2095 145.963 76.5804 145.667 76.925C143.976 73.398 143.358 68.8815 144.398 67.0799C144.499 66.8556 144.661 66.6647 144.866 66.5297C145.072 66.3948 145.311 66.3216 145.557 66.3187ZM156.755 66.3187C157.026 66.3101 157.293 66.3777 157.526 66.5139C157.759 66.65 157.95 66.8491 158.075 67.0884C159.022 68.7292 158.379 72.7637 156.713 76.1891C155.414 74.1939 154.691 71.8788 154.624 69.4989C154.624 68.3233 154.903 66.3272 156.755 66.3272V66.3187Z" fill="white"/>
<path d="M134.951 106.672H166.736V112.88H134.951V106.672Z" fill="#263238"/>
<path d="M134.951 113.886H166.736V120.094H134.951V113.886Z" fill="#263238"/>
<path d="M134.951 121.101H166.736V127.309H134.951V121.101Z" fill="#263238"/>
<path d="M182.138 51.5258C181.613 38.9065 172.656 25.0524 159.301 23.8345C171.218 28.6048 178.002 39.9046 182.138 51.5258Z" fill="white"/>
<path d="M150.319 9.65897C150.902 6.46576 150.902 3.19321 150.319 0C149.74 3.19361 149.74 6.46536 150.319 9.65897Z" fill="#FFEB34"/>
<path d="M172.496 15.3088C174.585 12.8271 176.207 9.98723 177.283 6.927C175.197 9.41078 173.575 12.2501 172.496 15.3088Z" fill="#FFEB34"/>
<path d="M188.87 31.2945C191.921 30.1911 194.747 28.5433 197.21 26.4312C194.16 27.5365 191.334 29.1841 188.87 31.2945Z" fill="#FFEB34"/>
<path d="M195.062 53.3188C198.255 53.898 201.527 53.898 204.72 53.3188C201.527 52.7352 198.255 52.7352 195.062 53.3188Z" fill="#FFEB34"/>
<path d="M189.412 75.4956C191.893 77.5878 194.733 79.2127 197.793 80.2913C195.311 78.2013 192.471 76.5768 189.412 75.4956Z" fill="#FFEB34"/>
<path d="M112.842 76.426C109.792 77.5327 106.967 79.1802 104.502 81.2893C107.554 80.1874 110.38 78.5394 112.842 76.426Z" fill="#FFEB34"/>
<path d="M106.651 54.4016C103.46 53.8222 100.191 53.8222 97.0001 54.4016C100.19 54.9851 103.46 54.9851 106.651 54.4016Z" fill="#FFEB34"/>
<path d="M112.301 32.2249C109.821 30.1346 106.985 28.5099 103.927 27.4292C106.405 29.5208 109.242 31.1457 112.301 32.2249Z" fill="#FFEB34"/>
<path d="M128.286 15.8502C127.181 12.7974 125.533 9.96937 123.423 7.5022C124.531 10.5535 126.179 13.381 128.286 15.8502Z" fill="#FFEB34"/>
</svg>
