<svg width="239" height="49" viewBox="0 0 239 49" fill="none"
                    xmlns="http://www.w3.org/2000/svg">
                    <path opacity="0.5" d="M15.0571 2H0L15.9429 24.5L0 47H15.0571L31 24.5L15.0571 2Z" fill="#FF8059" />
                    <path d="M29.0571 2H14L29.9429 24.5L14 47H29.0571L45 24.5L29.0571 2Z" fill="#FF6434" />
                    <path
                        d="M71.28 18.5L67.216 12.98L68.512 12.18L73.104 18.5H71.28ZM63.744 18.5V7.3H65.312V18.5H63.744ZM64.832 13.572V12.164H68.464V13.572H64.832ZM68.656 13.076L67.184 12.852L71.2 7.3H72.912L68.656 13.076ZM78.0106 18.596C77.1573 18.596 76.4 18.4093 75.7386 18.036C75.0773 17.6627 74.5546 17.1507 74.1706 16.5C73.7866 15.8387 73.5946 15.092 73.5946 14.26C73.5946 13.4173 73.7866 12.6707 74.1706 12.02C74.5546 11.3693 75.0773 10.8627 75.7386 10.5C76.4 10.1267 77.1573 9.94 78.0106 9.94C78.8533 9.94 79.6053 10.1267 80.2666 10.5C80.9386 10.8627 81.4613 11.3693 81.8346 12.02C82.2186 12.66 82.4106 13.4067 82.4106 14.26C82.4106 15.1027 82.2186 15.8493 81.8346 16.5C81.4613 17.1507 80.9386 17.6627 80.2666 18.036C79.6053 18.4093 78.8533 18.596 78.0106 18.596ZM78.0106 17.252C78.5546 17.252 79.04 17.1293 79.4666 16.884C79.904 16.6387 80.2453 16.292 80.4906 15.844C80.736 15.3853 80.8586 14.8573 80.8586 14.26C80.8586 13.652 80.736 13.1293 80.4906 12.692C80.2453 12.244 79.904 11.8973 79.4666 11.652C79.04 11.4067 78.5546 11.284 78.0106 11.284C77.4666 11.284 76.9813 11.4067 76.5546 11.652C76.128 11.8973 75.7866 12.244 75.5306 12.692C75.2746 13.1293 75.1466 13.652 75.1466 14.26C75.1466 14.8573 75.2746 15.3853 75.5306 15.844C75.7866 16.292 76.128 16.6387 76.5546 16.884C76.9813 17.1293 77.4666 17.252 78.0106 17.252ZM83.1581 18.484L83.2541 17.188C83.3288 17.1987 83.3981 17.2093 83.4621 17.22C83.5261 17.2307 83.5848 17.236 83.6381 17.236C83.9795 17.236 84.2461 17.1187 84.4381 16.884C84.6408 16.6493 84.7901 16.34 84.8861 15.956C84.9821 15.5613 85.0515 15.1187 85.0941 14.628C85.1368 14.1373 85.1688 13.6467 85.1901 13.156L85.3341 10.02H91.8461V18.5H90.3101V10.916L90.6781 11.364H86.3261L86.6781 10.9L86.5661 13.252C86.5341 13.9987 86.4755 14.6973 86.3901 15.348C86.3048 15.9987 86.1715 16.5693 85.9901 17.06C85.8195 17.5507 85.5795 17.9347 85.2701 18.212C84.9715 18.4893 84.5821 18.628 84.1021 18.628C83.9635 18.628 83.8141 18.612 83.6541 18.58C83.5048 18.5587 83.3395 18.5267 83.1581 18.484ZM93.4081 18.484L93.5041 17.188C93.5788 17.1987 93.6481 17.2093 93.7121 17.22C93.7761 17.2307 93.8348 17.236 93.8881 17.236C94.2295 17.236 94.4961 17.1187 94.6881 16.884C94.8908 16.6493 95.0401 16.34 95.1361 15.956C95.2321 15.5613 95.3015 15.1187 95.3441 14.628C95.3868 14.1373 95.4188 13.6467 95.4401 13.156L95.5841 10.02H102.096V18.5H100.56V10.916L100.928 11.364H96.5761L96.9281 10.9L96.8161 13.252C96.7841 13.9987 96.7255 14.6973 96.6401 15.348C96.5548 15.9987 96.4215 16.5693 96.2401 17.06C96.0695 17.5507 95.8295 17.9347 95.5201 18.212C95.2215 18.4893 94.8321 18.628 94.3521 18.628C94.2135 18.628 94.0641 18.612 93.9041 18.58C93.7548 18.5587 93.5895 18.5267 93.4081 18.484ZM108.842 18.596C107.935 18.596 107.135 18.4093 106.442 18.036C105.759 17.6627 105.226 17.1507 104.842 16.5C104.469 15.8493 104.282 15.1027 104.282 14.26C104.282 13.4173 104.463 12.6707 104.826 12.02C105.199 11.3693 105.706 10.8627 106.346 10.5C106.997 10.1267 107.727 9.94 108.538 9.94C109.359 9.94 110.085 10.1213 110.714 10.484C111.343 10.8467 111.834 11.3587 112.186 12.02C112.549 12.6707 112.73 13.4333 112.73 14.308C112.73 14.372 112.725 14.4467 112.714 14.532C112.714 14.6173 112.709 14.6973 112.698 14.772H105.482V13.668H111.898L111.274 14.052C111.285 13.508 111.173 13.0227 110.938 12.596C110.703 12.1693 110.378 11.8387 109.962 11.604C109.557 11.3587 109.082 11.236 108.538 11.236C108.005 11.236 107.53 11.3587 107.114 11.604C106.698 11.8387 106.373 12.1747 106.138 12.612C105.903 13.0387 105.786 13.5293 105.786 14.084V14.34C105.786 14.9053 105.914 15.412 106.17 15.86C106.437 16.2973 106.805 16.6387 107.274 16.884C107.743 17.1293 108.282 17.252 108.89 17.252C109.391 17.252 109.845 17.1667 110.25 16.996C110.666 16.8253 111.029 16.5693 111.338 16.228L112.186 17.22C111.802 17.668 111.322 18.0093 110.746 18.244C110.181 18.4787 109.546 18.596 108.842 18.596ZM120.764 17.78V11.364H117.084L117.004 12.996C116.983 13.5293 116.946 14.0467 116.892 14.548C116.85 15.0387 116.775 15.492 116.668 15.908C116.572 16.324 116.428 16.6653 116.236 16.932C116.044 17.1987 115.788 17.364 115.468 17.428L113.948 17.156C114.279 17.1667 114.546 17.06 114.748 16.836C114.951 16.6013 115.106 16.2813 115.212 15.876C115.33 15.4707 115.415 15.012 115.468 14.5C115.522 13.9773 115.564 13.4387 115.596 12.884L115.724 10.02H122.3V17.78H120.764ZM113.612 20.468V17.156H123.596V20.468H122.156V18.5H115.068V20.468H113.612ZM135.661 18.5L132.957 14.372L134.221 13.604L137.485 18.5H135.661ZM131.197 14.916V13.604H133.949V14.916H131.197ZM134.365 14.436L132.909 14.244L135.613 10.02H137.261L134.365 14.436ZM126.141 18.5H124.317L127.565 13.604L128.829 14.372L126.141 18.5ZM131.661 18.5H130.125V10.02H131.661V18.5ZM130.589 14.916H127.853V13.604H130.589V14.916ZM127.437 14.436L124.541 10.02H126.173L128.877 14.244L127.437 14.436ZM143.472 18.5V10.02H145.008V16.196L150.208 10.02H151.6V18.5H150.064V12.324L144.88 18.5H143.472ZM154.582 18.5V10.02H156.166L159.814 16.292H159.174L162.918 10.02H164.358V18.5H162.966V11.748L163.222 11.892L159.798 17.54H159.126L155.686 11.78L155.99 11.716V18.5H154.582ZM171.123 18.596C170.217 18.596 169.417 18.4093 168.723 18.036C168.041 17.6627 167.507 17.1507 167.123 16.5C166.75 15.8493 166.563 15.1027 166.563 14.26C166.563 13.4173 166.745 12.6707 167.107 12.02C167.481 11.3693 167.987 10.8627 168.627 10.5C169.278 10.1267 170.009 9.94 170.819 9.94C171.641 9.94 172.366 10.1213 172.995 10.484C173.625 10.8467 174.115 11.3587 174.467 12.02C174.83 12.6707 175.011 13.4333 175.011 14.308C175.011 14.372 175.006 14.4467 174.995 14.532C174.995 14.6173 174.99 14.6973 174.979 14.772H167.763V13.668H174.179L173.555 14.052C173.566 13.508 173.454 13.0227 173.219 12.596C172.985 12.1693 172.659 11.8387 172.243 11.604C171.838 11.3587 171.363 11.236 170.819 11.236C170.286 11.236 169.811 11.3587 169.395 11.604C168.979 11.8387 168.654 12.1747 168.419 12.612C168.185 13.0387 168.067 13.5293 168.067 14.084V14.34C168.067 14.9053 168.195 15.412 168.451 15.86C168.718 16.2973 169.086 16.6387 169.555 16.884C170.025 17.1293 170.563 17.252 171.171 17.252C171.673 17.252 172.126 17.1667 172.531 16.996C172.947 16.8253 173.31 16.5693 173.619 16.228L174.467 17.22C174.083 17.668 173.603 18.0093 173.027 18.244C172.462 18.4787 171.827 18.596 171.123 18.596ZM177.394 18.5V10.02H178.93V13.62H183.762V10.02H185.298V18.5H183.762V14.948H178.93V18.5H177.394ZM188.285 18.5V10.02H189.821V16.196L195.021 10.02H196.413V18.5H194.877V12.324L189.693 18.5H188.285ZM63.744 42.5V31.3H65.056L70.08 39.764H69.376L74.336 31.3H75.648L75.664 42.5H74.128L74.112 33.716H74.48L70.064 41.14H69.328L64.88 33.716H65.28V42.5H63.744ZM84.0943 42.5V40.708L84.0143 40.372V37.316C84.0143 36.6653 83.8223 36.164 83.4383 35.812C83.0649 35.4493 82.4996 35.268 81.7423 35.268C81.2409 35.268 80.7503 35.3533 80.2703 35.524C79.7903 35.684 79.3849 35.9027 79.0543 36.18L78.4143 35.028C78.8516 34.676 79.3743 34.4093 79.9823 34.228C80.6009 34.036 81.2463 33.94 81.9183 33.94C83.0809 33.94 83.9769 34.2227 84.6063 34.788C85.2356 35.3533 85.5503 36.2173 85.5503 37.38V42.5H84.0943ZM81.3103 42.596C80.6809 42.596 80.1263 42.4893 79.6463 42.276C79.1769 42.0627 78.8143 41.7693 78.5583 41.396C78.3023 41.012 78.1743 40.58 78.1743 40.1C78.1743 39.6413 78.2809 39.2253 78.4943 38.852C78.7183 38.4787 79.0756 38.18 79.5663 37.956C80.0676 37.732 80.7396 37.62 81.5823 37.62H84.2703V38.724H81.6463C80.8783 38.724 80.3609 38.852 80.0943 39.108C79.8276 39.364 79.6943 39.6733 79.6943 40.036C79.6943 40.452 79.8596 40.788 80.1903 41.044C80.5209 41.2893 80.9796 41.412 81.5663 41.412C82.1423 41.412 82.6436 41.284 83.0703 41.028C83.5076 40.772 83.8223 40.3987 84.0143 39.908L84.3183 40.964C84.1156 41.4653 83.7583 41.8653 83.2463 42.164C82.7343 42.452 82.0889 42.596 81.3103 42.596ZM88.3161 42.5V34.02H94.5561V35.364H89.4841L89.8521 35.012V42.5H88.3161ZM106.052 42.5L103.348 38.372L104.612 37.604L107.876 42.5H106.052ZM101.588 38.916V37.604H104.34V38.916H101.588ZM104.756 38.436L103.3 38.244L106.004 34.02H107.652L104.756 38.436ZM96.532 42.5H94.708L97.956 37.604L99.22 38.372L96.532 42.5ZM102.052 42.5H100.516V34.02H102.052V42.5ZM100.98 38.916H98.244V37.604H100.98V38.916ZM97.828 38.436L94.932 34.02H96.564L99.268 38.244L97.828 38.436ZM114.61 42.5V40.708L114.53 40.372V37.316C114.53 36.6653 114.338 36.164 113.954 35.812C113.581 35.4493 113.015 35.268 112.258 35.268C111.757 35.268 111.266 35.3533 110.786 35.524C110.306 35.684 109.901 35.9027 109.57 36.18L108.93 35.028C109.367 34.676 109.89 34.4093 110.498 34.228C111.117 34.036 111.762 33.94 112.434 33.94C113.597 33.94 114.493 34.2227 115.122 34.788C115.751 35.3533 116.066 36.2173 116.066 37.38V42.5H114.61ZM111.826 42.596C111.197 42.596 110.642 42.4893 110.162 42.276C109.693 42.0627 109.33 41.7693 109.074 41.396C108.818 41.012 108.69 40.58 108.69 40.1C108.69 39.6413 108.797 39.2253 109.01 38.852C109.234 38.4787 109.591 38.18 110.082 37.956C110.583 37.732 111.255 37.62 112.098 37.62H114.786V38.724H112.162C111.394 38.724 110.877 38.852 110.61 39.108C110.343 39.364 110.21 39.6733 110.21 40.036C110.21 40.452 110.375 40.788 110.706 41.044C111.037 41.2893 111.495 41.412 112.082 41.412C112.658 41.412 113.159 41.284 113.586 41.028C114.023 40.772 114.338 40.3987 114.53 39.908L114.834 40.964C114.631 41.4653 114.274 41.8653 113.762 42.164C113.25 42.452 112.605 42.596 111.826 42.596ZM118.832 42.5V34.02H120.368V37.62H125.2V34.02H126.736V42.5H125.2V38.948H120.368V42.5H118.832ZM134.922 42.5V40.708L134.842 40.372V37.316C134.842 36.6653 134.65 36.164 134.266 35.812C133.893 35.4493 133.328 35.268 132.57 35.268C132.069 35.268 131.578 35.3533 131.098 35.524C130.618 35.684 130.213 35.9027 129.882 36.18L129.242 35.028C129.68 34.676 130.202 34.4093 130.81 34.228C131.429 34.036 132.074 33.94 132.746 33.94C133.909 33.94 134.805 34.2227 135.434 34.788C136.064 35.3533 136.378 36.2173 136.378 37.38V42.5H134.922ZM132.138 42.596C131.509 42.596 130.954 42.4893 130.474 42.276C130.005 42.0627 129.642 41.7693 129.386 41.396C129.13 41.012 129.002 40.58 129.002 40.1C129.002 39.6413 129.109 39.2253 129.322 38.852C129.546 38.4787 129.904 38.18 130.394 37.956C130.896 37.732 131.568 37.62 132.41 37.62H135.098V38.724H132.474C131.706 38.724 131.189 38.852 130.922 39.108C130.656 39.364 130.522 39.6733 130.522 40.036C130.522 40.452 130.688 40.788 131.018 41.044C131.349 41.2893 131.808 41.412 132.394 41.412C132.97 41.412 133.472 41.284 133.898 41.028C134.336 40.772 134.65 40.3987 134.842 39.908L135.146 40.964C134.944 41.4653 134.586 41.8653 134.074 42.164C133.562 42.452 132.917 42.596 132.138 42.596ZM156.241 42.5L152.737 36.98L154.081 36.18L158.113 42.5H156.241ZM150.497 37.572V36.164H153.777V37.572H150.497ZM154.177 37.076L152.689 36.852L156.129 31.3H157.841L154.177 37.076ZM144.129 42.5H142.257L146.273 36.18L147.633 36.98L144.129 42.5ZM150.977 42.5H149.409V31.3H150.977V42.5ZM149.889 37.572H146.593V36.164H149.889V37.572ZM146.209 37.076L142.529 31.3H144.241L147.665 36.852L146.209 37.076ZM159.904 45.7C159.499 45.7 159.104 45.6307 158.72 45.492C158.336 45.364 158.006 45.172 157.728 44.916L158.384 43.764C158.598 43.9667 158.832 44.1213 159.088 44.228C159.344 44.3347 159.616 44.388 159.904 44.388C160.278 44.388 160.587 44.292 160.832 44.1C161.078 43.908 161.307 43.5667 161.52 43.076L162.048 41.908L162.208 41.716L165.536 34.02H167.04L162.928 43.348C162.683 43.9453 162.406 44.4147 162.096 44.756C161.798 45.0973 161.467 45.3373 161.104 45.476C160.742 45.6253 160.342 45.7 159.904 45.7ZM161.92 42.772L158.048 34.02H159.648L162.944 41.572L161.92 42.772ZM168.613 42.5V34.02H170.197L173.845 40.292H173.205L176.949 34.02H178.389V42.5H176.997V35.748L177.253 35.892L173.829 41.54H173.157L169.717 35.78L170.021 35.716V42.5H168.613ZM186.579 42.5V40.708L186.499 40.372V37.316C186.499 36.6653 186.307 36.164 185.923 35.812C185.549 35.4493 184.984 35.268 184.227 35.268C183.725 35.268 183.235 35.3533 182.755 35.524C182.275 35.684 181.869 35.9027 181.539 36.18L180.899 35.028C181.336 34.676 181.859 34.4093 182.467 34.228C183.085 34.036 183.731 33.94 184.403 33.94C185.565 33.94 186.461 34.2227 187.091 34.788C187.72 35.3533 188.035 36.2173 188.035 37.38V42.5H186.579ZM183.795 42.596C183.165 42.596 182.611 42.4893 182.131 42.276C181.661 42.0627 181.299 41.7693 181.043 41.396C180.787 41.012 180.659 40.58 180.659 40.1C180.659 39.6413 180.765 39.2253 180.979 38.852C181.203 38.4787 181.56 38.18 182.051 37.956C182.552 37.732 183.224 37.62 184.067 37.62H186.755V38.724H184.131C183.363 38.724 182.845 38.852 182.579 39.108C182.312 39.364 182.179 39.6733 182.179 40.036C182.179 40.452 182.344 40.788 182.675 41.044C183.005 41.2893 183.464 41.412 184.051 41.412C184.627 41.412 185.128 41.284 185.555 41.028C185.992 40.772 186.307 40.3987 186.499 39.908L186.803 40.964C186.6 41.4653 186.243 41.8653 185.731 42.164C185.219 42.452 184.573 42.596 183.795 42.596ZM194.721 42.628C194.017 42.628 193.393 42.516 192.849 42.292C192.315 42.068 191.857 41.7373 191.473 41.3C191.089 40.852 190.795 40.292 190.593 39.62C190.401 38.9373 190.305 38.1373 190.305 37.22C190.305 36.4947 190.369 35.844 190.497 35.268C190.625 34.692 190.806 34.18 191.041 33.732C191.286 33.284 191.585 32.8947 191.937 32.564C192.299 32.2333 192.705 31.9613 193.153 31.748C193.611 31.524 194.113 31.3533 194.657 31.236L198.529 30.372L198.753 31.796L195.185 32.564C194.971 32.6067 194.715 32.6707 194.417 32.756C194.118 32.8413 193.814 32.9747 193.505 33.156C193.195 33.3267 192.907 33.5667 192.641 33.876C192.374 34.1853 192.161 34.5907 192.001 35.092C191.841 35.5827 191.761 36.1907 191.761 36.916C191.761 37.1187 191.766 37.2733 191.777 37.38C191.787 37.4867 191.798 37.5933 191.809 37.7C191.83 37.8067 191.846 37.9667 191.857 38.18L191.217 37.524C191.387 36.9373 191.659 36.4253 192.033 35.988C192.406 35.5507 192.854 35.2147 193.377 34.98C193.91 34.7347 194.491 34.612 195.121 34.612C195.91 34.612 196.609 34.7827 197.217 35.124C197.835 35.4653 198.321 35.9347 198.673 36.532C199.025 37.1293 199.201 37.812 199.201 38.58C199.201 39.3587 199.014 40.0573 198.641 40.676C198.278 41.284 197.761 41.764 197.089 42.116C196.417 42.4573 195.627 42.628 194.721 42.628ZM194.865 41.348C195.409 41.348 195.889 41.2307 196.305 40.996C196.721 40.7507 197.046 40.4253 197.281 40.02C197.515 39.604 197.633 39.14 197.633 38.628C197.633 38.116 197.515 37.6627 197.281 37.268C197.046 36.8733 196.721 36.564 196.305 36.34C195.889 36.1053 195.398 35.988 194.833 35.988C194.299 35.988 193.819 36.1 193.393 36.324C192.966 36.5373 192.635 36.8413 192.401 37.236C192.166 37.62 192.049 38.068 192.049 38.58C192.049 39.092 192.166 39.5613 192.401 39.988C192.646 40.404 192.977 40.7347 193.393 40.98C193.819 41.2253 194.31 41.348 194.865 41.348ZM206.516 42.5V40.708L206.436 40.372V37.316C206.436 36.6653 206.244 36.164 205.86 35.812C205.487 35.4493 204.921 35.268 204.164 35.268C203.663 35.268 203.172 35.3533 202.692 35.524C202.212 35.684 201.807 35.9027 201.476 36.18L200.836 35.028C201.273 34.676 201.796 34.4093 202.404 34.228C203.023 34.036 203.668 33.94 204.34 33.94C205.503 33.94 206.399 34.2227 207.028 34.788C207.657 35.3533 207.972 36.2173 207.972 37.38V42.5H206.516ZM203.732 42.596C203.103 42.596 202.548 42.4893 202.068 42.276C201.599 42.0627 201.236 41.7693 200.98 41.396C200.724 41.012 200.596 40.58 200.596 40.1C200.596 39.6413 200.703 39.2253 200.916 38.852C201.14 38.4787 201.497 38.18 201.988 37.956C202.489 37.732 203.161 37.62 204.004 37.62H206.692V38.724H204.068C203.3 38.724 202.783 38.852 202.516 39.108C202.249 39.364 202.116 39.6733 202.116 40.036C202.116 40.452 202.281 40.788 202.612 41.044C202.943 41.2893 203.401 41.412 203.988 41.412C204.564 41.412 205.065 41.284 205.492 41.028C205.929 40.772 206.244 40.3987 206.436 39.908L206.74 40.964C206.537 41.4653 206.18 41.8653 205.668 42.164C205.156 42.452 204.511 42.596 203.732 42.596ZM214.514 42.596C213.607 42.596 212.807 42.4093 212.114 42.036C211.431 41.6627 210.898 41.1507 210.514 40.5C210.141 39.8493 209.954 39.1027 209.954 38.26C209.954 37.4173 210.135 36.6707 210.498 36.02C210.871 35.3693 211.378 34.8627 212.018 34.5C212.669 34.1267 213.399 33.94 214.21 33.94C215.031 33.94 215.757 34.1213 216.386 34.484C217.015 34.8467 217.506 35.3587 217.858 36.02C218.221 36.6707 218.402 37.4333 218.402 38.308C218.402 38.372 218.397 38.4467 218.386 38.532C218.386 38.6173 218.381 38.6973 218.37 38.772H211.154V37.668H217.57L216.946 38.052C216.957 37.508 216.845 37.0227 216.61 36.596C216.375 36.1693 216.05 35.8387 215.634 35.604C215.229 35.3587 214.754 35.236 214.21 35.236C213.677 35.236 213.202 35.3587 212.786 35.604C212.37 35.8387 212.045 36.1747 211.81 36.612C211.575 37.0387 211.458 37.5293 211.458 38.084V38.34C211.458 38.9053 211.586 39.412 211.842 39.86C212.109 40.2973 212.477 40.6387 212.946 40.884C213.415 41.1293 213.954 41.252 214.562 41.252C215.063 41.252 215.517 41.1667 215.922 40.996C216.338 40.8253 216.701 40.5693 217.01 40.228L217.858 41.22C217.474 41.668 216.994 42.0093 216.418 42.244C215.853 42.4787 215.218 42.596 214.514 42.596ZM220.785 42.5V34.02H224.721C225.713 34.02 226.492 34.212 227.057 34.596C227.633 34.9693 227.921 35.5027 227.921 36.196C227.921 36.8893 227.649 37.428 227.105 37.812C226.572 38.1853 225.862 38.372 224.977 38.372L225.217 37.956C226.23 37.956 226.982 38.1427 227.473 38.516C227.964 38.8893 228.209 39.4387 228.209 40.164C228.209 40.9 227.932 41.476 227.377 41.892C226.833 42.2973 225.996 42.5 224.865 42.5H220.785ZM222.289 41.316H224.753C225.393 41.316 225.873 41.22 226.193 41.028C226.513 40.8253 226.673 40.5053 226.673 40.068C226.673 39.62 226.524 39.2947 226.225 39.092C225.937 38.8787 225.478 38.772 224.849 38.772H222.289V41.316ZM222.289 37.668H224.593C225.18 37.668 225.622 37.5613 225.921 37.348C226.23 37.124 226.385 36.8147 226.385 36.42C226.385 36.0147 226.23 35.7107 225.921 35.508C225.622 35.3053 225.18 35.204 224.593 35.204H222.289V37.668ZM235.813 42.5V40.708L235.733 40.372V37.316C235.733 36.6653 235.541 36.164 235.157 35.812C234.784 35.4493 234.218 35.268 233.461 35.268C232.96 35.268 232.469 35.3533 231.989 35.524C231.509 35.684 231.104 35.9027 230.773 36.18L230.133 35.028C230.57 34.676 231.093 34.4093 231.701 34.228C232.32 34.036 232.965 33.94 233.637 33.94C234.8 33.94 235.696 34.2227 236.325 34.788C236.954 35.3533 237.269 36.2173 237.269 37.38V42.5H235.813ZM233.029 42.596C232.4 42.596 231.845 42.4893 231.365 42.276C230.896 42.0627 230.533 41.7693 230.277 41.396C230.021 41.012 229.893 40.58 229.893 40.1C229.893 39.6413 230 39.2253 230.213 38.852C230.437 38.4787 230.794 38.18 231.285 37.956C231.786 37.732 232.458 37.62 233.301 37.62H235.989V38.724H233.365C232.597 38.724 232.08 38.852 231.813 39.108C231.546 39.364 231.413 39.6733 231.413 40.036C231.413 40.452 231.578 40.788 231.909 41.044C232.24 41.2893 232.698 41.412 233.285 41.412C233.861 41.412 234.362 41.284 234.789 41.028C235.226 40.772 235.541 40.3987 235.733 39.908L236.037 40.964C235.834 41.4653 235.477 41.8653 234.965 42.164C234.453 42.452 233.808 42.596 233.029 42.596Z"
                        fill="#2E363E" />
                </svg>